<svg width="55" height="55" viewBox="0 0 55 55" fill="none" xmlns="http://www.w3.org/2000/svg">
<path d="M27.5 1.375C13.0906 1.375 1.375 13.1208 1.375 27.5671C2.80445 62.3156 52.2011 62.3057 53.625 27.5671C53.625 13.1208 41.9095 1.375 27.5 1.375ZM44.7772 13.4585C47.8775 17.265 49.7701 22.1194 49.8047 27.4043C49.0732 27.2415 41.6999 25.751 34.2689 26.6827C33.6727 25.1999 33.0269 23.7138 32.318 22.2822C40.5625 18.9063 44.3014 14.0987 44.7772 13.4585ZM27.5 5.21675C33.1777 5.21675 38.3565 7.3469 42.2928 10.8625C41.8979 11.4329 38.5424 15.961 30.6004 18.9414C26.9429 12.2127 22.8905 6.6715 22.275 5.8454C23.947 5.4494 25.7004 5.2283 27.5 5.21675ZM18.0136 7.3469C18.6059 8.162 22.6001 13.7027 26.2922 20.2917C15.8538 23.0621 6.65775 23.0274 5.6595 23.0159C7.0994 16.0776 11.7788 10.3037 18.0136 7.3469ZM5.1832 27.6139C5.1832 27.3812 5.1832 27.148 5.19475 26.9269C6.1699 26.9385 16.9917 27.0782 28.1265 23.7375C28.765 24.9832 29.3805 26.2636 29.9376 27.5324C29.6357 27.6138 29.3453 27.7068 29.0549 27.8003C17.5483 31.5255 11.429 41.6878 10.9186 42.5612C7.3546 38.6029 5.1832 33.3531 5.1832 27.6139ZM27.5116 49.9763C22.3564 49.9763 17.5956 48.207 13.8105 45.2502C14.2054 44.4351 18.7335 35.6813 31.3203 31.2807C31.355 31.2692 31.4133 31.2576 31.4595 31.234C34.5945 39.3943 35.8831 46.2275 36.2203 48.1949C33.5495 49.3477 30.6004 49.9763 27.5116 49.9763ZM39.9817 46.1467C39.7381 44.7849 38.5534 38.2426 35.6395 30.1983C42.6294 29.0807 48.7718 30.9083 49.538 31.1531C48.5392 37.3807 44.9746 42.7471 39.9817 46.1467Z" fill="#808080"/>
</svg>
