<svg width="55" height="55" viewBox="0 0 55 55" fill="none" xmlns="http://www.w3.org/2000/svg">
<path d="M27.4999 3C21.4449 3.00025 15.5876 5.16622 10.9759 9.11035C6.36428 13.0545 3.29929 18.5194 2.32936 24.5272C1.35943 30.5351 2.54785 36.6939 5.68199 41.9015C8.81612 47.1092 13.6914 51.0259 19.4356 52.9509C20.7106 53.1753 21.1887 52.4063 21.1887 51.7334C21.1887 51.1247 21.1568 49.1061 21.1568 46.9594C14.75 48.1449 13.0925 45.3895 12.5825 43.9477C12.0166 42.5454 11.1195 41.3027 9.96876 40.327C9.07627 39.8464 7.80128 38.6609 9.93686 38.629C10.7523 38.7179 11.5344 39.0031 12.2169 39.4605C12.8994 39.9178 13.4621 40.5338 13.8575 41.2562C14.2062 41.886 14.6752 42.4404 15.2375 42.8877C15.7998 43.335 16.4444 43.6663 17.1343 43.8628C17.8242 44.0592 18.5459 44.1169 19.258 44.0325C19.9702 43.9481 20.6587 43.7232 21.2843 43.3709C21.3946 42.0678 21.9724 40.8494 22.9099 39.9426C17.2362 39.3018 11.3075 37.0909 11.3075 27.2867C11.2717 24.7392 12.2068 22.2745 13.9212 20.398C13.1417 18.1839 13.2329 15.7542 14.1762 13.6054C14.1762 13.6054 16.3118 12.9326 21.1887 16.2328C25.3612 15.0792 29.7661 15.0792 33.9386 16.2328C38.8154 12.9006 40.951 13.6054 40.951 13.6054C41.8945 15.7541 41.9858 18.184 41.206 20.398C42.9256 22.2713 43.8616 24.7381 43.8198 27.2867C43.8198 37.123 37.8591 39.3018 32.1855 39.9426C32.794 40.5626 33.2627 41.307 33.5597 42.1252C33.8567 42.9435 33.9751 43.8163 33.9067 44.6846C33.9067 48.113 33.8748 50.8684 33.8748 51.7335C33.8748 52.4064 34.3529 53.2074 35.6279 52.951C41.362 51.0103 46.2233 47.0844 49.3441 41.8741C52.4649 36.6638 53.642 30.5082 52.6654 24.5061C51.6887 18.5041 48.6218 13.0463 44.0122 9.10692C39.4026 5.1676 33.5503 3.00317 27.4999 3Z" fill="#808080"/>
</svg>
