<svg width="55" height="55" viewBox="0 0 55 55" fill="none" xmlns="http://www.w3.org/2000/svg">
<path d="M39.7374 12.5127C39.1935 12.5127 38.6618 12.6739 38.2096 12.9761C37.7574 13.2783 37.4049 13.7078 37.1967 14.2103C36.9886 14.7128 36.9341 15.2657 37.0403 15.7992C37.1464 16.3326 37.4083 16.8226 37.7929 17.2072C38.1775 17.5918 38.6675 17.8537 39.2009 17.9598C39.7344 18.0659 40.2873 18.0115 40.7898 17.8033C41.2923 17.5952 41.7218 17.2427 42.024 16.7905C42.3261 16.3382 42.4874 15.8066 42.4874 15.2627C42.4874 14.5333 42.1977 13.8338 41.682 13.3181C41.1662 12.8024 40.4668 12.5127 39.7374 12.5127ZM50.2791 18.0585C50.2345 16.1571 49.8784 14.2759 49.2249 12.4897C48.6422 10.9615 47.7353 9.57768 46.5666 8.4335C45.4318 7.25885 44.0447 6.35765 42.5103 5.79808C40.7289 5.1247 38.8456 4.76044 36.9416 4.721C34.5124 4.5835 33.7332 4.5835 27.4999 4.5835C21.2666 4.5835 20.4874 4.5835 18.0583 4.721C16.1542 4.76044 14.2709 5.1247 12.4895 5.79808C10.9579 6.36332 9.57206 7.26374 8.43325 8.4335C7.2586 9.56828 6.35741 10.9553 5.79784 12.4897C5.12445 14.2712 4.76019 16.1545 4.72075 18.0585C4.58325 20.4877 4.58325 21.2668 4.58325 27.5002C4.58325 33.7335 4.58325 34.5127 4.72075 36.9418C4.76019 38.8459 5.12445 40.7292 5.79784 42.5106C6.35741 44.045 7.2586 45.432 8.43325 46.5668C9.57206 47.7366 10.9579 48.637 12.4895 49.2022C14.2709 49.8756 16.1542 50.2399 18.0583 50.2793C20.4874 50.4168 21.2666 50.4168 27.4999 50.4168C33.7332 50.4168 34.5124 50.4168 36.9416 50.2793C38.8456 50.2399 40.7289 49.8756 42.5103 49.2022C44.0447 48.6427 45.4318 47.7415 46.5666 46.5668C47.7405 45.4269 48.6482 44.0419 49.2249 42.5106C49.8784 40.7244 50.2345 38.8432 50.2791 36.9418C50.2791 34.5127 50.4166 33.7335 50.4166 27.5002C50.4166 21.2668 50.4166 20.4877 50.2791 18.0585ZM46.1541 36.6668C46.1374 38.1215 45.8739 39.5628 45.3749 40.9293C45.009 41.9266 44.4213 42.8278 43.6562 43.5647C42.9129 44.3222 42.0136 44.9087 41.0207 45.2835C39.6542 45.7825 38.2129 46.046 36.7583 46.0627C34.4666 46.1772 33.6187 46.2002 27.5916 46.2002C21.5645 46.2002 20.7166 46.2002 18.4249 46.0627C16.9145 46.0909 15.4104 45.8584 13.9791 45.3752C13.0298 44.9812 12.1718 44.3961 11.4583 43.6564C10.6976 42.9202 10.1173 42.0183 9.76242 41.021C9.20292 39.6349 8.8926 38.1609 8.84575 36.6668C8.84575 34.3752 8.70825 33.5272 8.70825 27.5002C8.70825 21.4731 8.70825 20.6252 8.84575 18.3335C8.85602 16.8463 9.12751 15.3725 9.64784 13.9793C10.0513 13.012 10.6705 12.1498 11.4583 11.4585C12.1545 10.6705 13.015 10.0448 13.9791 9.62516C15.376 9.1211 16.8482 8.85764 18.3333 8.846C20.6249 8.846 21.4728 8.7085 27.4999 8.7085C33.527 8.7085 34.3749 8.7085 36.6666 8.846C38.1213 8.86268 39.5626 9.12614 40.9291 9.62516C41.9705 10.0117 42.9052 10.64 43.6562 11.4585C44.4071 12.1624 44.994 13.0231 45.3749 13.9793C45.8842 15.3748 46.1479 16.848 46.1541 18.3335C46.2687 20.6252 46.2916 21.4731 46.2916 27.5002C46.2916 33.5272 46.2687 34.3752 46.1541 36.6668ZM27.4999 15.7439C25.1757 15.7484 22.905 16.4418 20.9748 17.7363C19.0445 19.0309 17.5412 20.8685 16.6549 23.0171C15.7686 25.1657 15.5391 27.5287 15.9953 29.8077C16.4515 32.0867 17.573 34.1793 19.218 35.8212C20.8631 37.463 22.9579 38.5804 25.2377 39.0322C27.5176 39.4839 29.8802 39.2498 32.027 38.3593C34.1739 37.4688 36.0086 35.962 37.2994 34.0292C38.5902 32.0964 39.2791 29.8244 39.2791 27.5002C39.2821 25.9535 38.9793 24.4216 38.3882 22.9924C37.797 21.5632 36.9291 20.2649 35.8344 19.1724C34.7397 18.0798 33.4398 17.2144 32.0095 16.626C30.5791 16.0377 29.0465 15.7379 27.4999 15.7439ZM27.4999 35.1314C25.9906 35.1314 24.5152 34.6838 23.2602 33.8453C22.0053 33.0068 21.0272 31.8149 20.4496 30.4205C19.872 29.0261 19.7208 27.4917 20.0153 26.0114C20.3098 24.5311 21.0366 23.1713 22.1038 22.1041C23.1711 21.0368 24.5308 20.31 26.0111 20.0155C27.4915 19.7211 29.0258 19.8722 30.4203 20.4498C31.8147 21.0274 33.0065 22.0055 33.8451 23.2605C34.6836 24.5154 35.1312 25.9908 35.1312 27.5002C35.1312 28.5023 34.9338 29.4946 34.5503 30.4205C34.1668 31.3464 33.6047 32.1876 32.896 32.8963C32.1874 33.6049 31.3461 34.167 30.4203 34.5505C29.4944 34.934 28.5021 35.1314 27.4999 35.1314Z" fill="#808080"/>
</svg>
