<svg width="55" height="55" viewBox="0 0 55 55" fill="none" xmlns="http://www.w3.org/2000/svg">
<path d="M45.4194 31.359V44.0001C45.4194 44.3106 45.1533 44.5768 44.8428 44.5768H38.3226C38.0122 44.5768 37.746 44.3106 37.746 44.0001V32.2461C37.746 29.1413 36.6372 27.0122 33.8428 27.0122C31.7138 27.0122 30.4718 28.4316 29.8952 29.8066C29.6734 30.2945 29.6291 31.0042 29.6291 31.6695V44.0001C29.6291 44.3106 29.363 44.5768 29.0525 44.5768H22.5767C22.2662 44.5768 22.0001 44.3106 22.0001 44.0001C22.0001 40.8509 22.0888 25.6372 22.0001 22.0889C22.0001 21.7784 22.2662 21.5122 22.5767 21.5122H29.0968C29.4073 21.5122 29.6734 21.7784 29.6734 22.0889V24.7945C29.6734 24.8389 29.6291 24.8389 29.6291 24.8832H29.6734V24.7945C30.6936 23.2421 32.5121 20.98 36.5928 20.98C41.6492 20.98 45.4194 24.3066 45.4194 31.359ZM10.6452 44.6211H17.1654C17.4759 44.6211 17.742 44.355 17.742 44.0445V22.0889C17.742 21.7784 17.4759 21.5122 17.1654 21.5122H10.6452C10.3347 21.5122 10.0686 21.7784 10.0686 22.0889V44.0445C10.113 44.355 10.3347 44.6211 10.6452 44.6211Z" fill="#808080"/>
<path d="M13.7056 18.6289C15.9837 18.6289 17.8306 16.7821 17.8306 14.5039C17.8306 12.2257 15.9837 10.3789 13.7056 10.3789C11.4274 10.3789 9.58057 12.2257 9.58057 14.5039C9.58057 16.7821 11.4274 18.6289 13.7056 18.6289Z" fill="#808080"/>
</svg>
