<svg width="55" height="55" viewBox="0 0 55 55" fill="none" xmlns="http://www.w3.org/2000/svg">
<path d="M29.1271 37.3312L28.7833 37.0562C28.6556 36.9695 28.5169 36.9001 28.3708 36.85L27.9583 36.6666C27.5867 36.5889 27.2015 36.6048 26.8375 36.7128C26.4735 36.8208 26.1421 37.0176 25.8729 37.2854C25.6705 37.5081 25.5077 37.7639 25.3917 38.0416C25.2182 38.4592 25.1722 38.9187 25.2593 39.3624C25.3465 39.806 25.5629 40.214 25.8814 40.5349C26.1999 40.8558 26.6062 41.0754 27.0491 41.1659C27.4921 41.2565 27.952 41.214 28.3708 41.0437C28.6447 40.9109 28.8991 40.7412 29.1271 40.5396C29.4451 40.2173 29.6605 39.8081 29.7461 39.3635C29.8318 38.9189 29.7838 38.459 29.6083 38.0416C29.4941 37.7767 29.3308 37.5356 29.1271 37.3312ZM36.6667 4.58331H18.3333C16.51 4.58331 14.7613 5.30764 13.472 6.59695C12.1827 7.88627 11.4583 9.63495 11.4583 11.4583V43.5416C11.4583 45.365 12.1827 47.1137 13.472 48.403C14.7613 49.6923 16.51 50.4166 18.3333 50.4166H36.6667C38.49 50.4166 40.2387 49.6923 41.528 48.403C42.8173 47.1137 43.5417 45.365 43.5417 43.5416V11.4583C43.5417 9.63495 42.8173 7.88627 41.528 6.59695C40.2387 5.30764 38.49 4.58331 36.6667 4.58331ZM38.9583 43.5416C38.9583 44.1494 38.7169 44.7323 38.2871 45.1621C37.8574 45.5919 37.2745 45.8333 36.6667 45.8333H18.3333C17.7256 45.8333 17.1427 45.5919 16.7129 45.1621C16.2831 44.7323 16.0417 44.1494 16.0417 43.5416V11.4583C16.0417 10.8505 16.2831 10.2676 16.7129 9.83786C17.1427 9.40809 17.7256 9.16665 18.3333 9.16665H36.6667C37.2745 9.16665 37.8574 9.40809 38.2871 9.83786C38.7169 10.2676 38.9583 10.8505 38.9583 11.4583V43.5416Z" fill="#808080"/>
</svg>
