<svg width="55" height="55" viewBox="0 0 55 55" fill="none" xmlns="http://www.w3.org/2000/svg">
<path d="M50.4167 16.5917C50.4184 16.2901 50.3606 15.9911 50.2466 15.7119C50.1325 15.4327 49.9645 15.1787 49.7521 14.9646L40.0354 5.24793C39.8213 5.03554 39.5673 4.8675 39.2881 4.75346C39.0089 4.63941 38.7099 4.58161 38.4083 4.58335C38.1067 4.58161 37.8078 4.63941 37.5286 4.75346C37.2493 4.8675 36.9954 5.03554 36.7813 5.24793L30.2958 11.7334L5.24792 36.7813C5.03552 36.9954 4.86749 37.2494 4.75344 37.5286C4.6394 37.8078 4.58159 38.1068 4.58334 38.4084V48.125C4.58334 48.7328 4.82478 49.3157 5.25455 49.7455C5.68432 50.1752 6.26721 50.4167 6.875 50.4167H16.5917C16.9123 50.4341 17.2331 50.384 17.5331 50.2695C17.8332 50.155 18.1058 49.9787 18.3333 49.7521L43.2438 24.7042L49.7521 18.3334C49.9613 18.1112 50.1317 17.8556 50.2563 17.5771C50.2783 17.3944 50.2783 17.2098 50.2563 17.0271C50.267 16.9204 50.267 16.8129 50.2563 16.7063L50.4167 16.5917ZM15.6521 45.8334H9.16667V39.3479L31.9229 16.5917L38.4083 23.0771L15.6521 45.8334ZM41.6396 19.8459L35.1542 13.3604L38.4083 10.1292L44.8708 16.5917L41.6396 19.8459Z" fill="#808080"/>
</svg>
