<svg width="36" height="20" viewBox="0 0 36 20" fill="none" xmlns="http://www.w3.org/2000/svg">
<path d="M34.0274 8.63531H4.77987L9.54133 2.82953C9.76398 2.5576 9.87109 2.20701 9.83911 1.8549C9.80713 1.50279 9.63868 1.178 9.37081 0.951978C9.10294 0.725955 8.75759 0.617214 8.41075 0.649678C8.0639 0.682142 7.74396 0.853152 7.52132 1.12509L0.962823 9.11468C0.918699 9.17823 0.879241 9.245 0.84477 9.31443C0.84477 9.38101 0.844771 9.42095 0.752952 9.48753C0.693497 9.64021 0.662367 9.80274 0.661133 9.96691C0.662367 10.1311 0.693497 10.2936 0.752952 10.4463C0.752952 10.5129 0.752952 10.5528 0.84477 10.6194C0.879241 10.6888 0.918699 10.7556 0.962823 10.8191L7.52132 18.8087C7.64464 18.959 7.79908 19.0799 7.97365 19.1628C8.14822 19.2456 8.33862 19.2884 8.53132 19.2881C8.8378 19.2887 9.13482 19.1804 9.37081 18.9818C9.50363 18.8701 9.61342 18.7328 9.6939 18.5778C9.77437 18.4229 9.82395 18.2534 9.83979 18.079C9.85563 17.9046 9.83742 17.7287 9.78621 17.5614C9.73499 17.3942 9.65178 17.2388 9.54133 17.1043L4.77987 11.2985H34.0274C34.3753 11.2985 34.7089 11.1582 34.9549 10.9085C35.2009 10.6588 35.3391 10.3201 35.3391 9.96691C35.3391 9.61375 35.2009 9.27505 34.9549 9.02533C34.7089 8.7756 34.3753 8.63531 34.0274 8.63531Z" fill="black"/>
</svg>
