<svg width="55" height="55" viewBox="0 0 55 55" fill="none" xmlns="http://www.w3.org/2000/svg">
<path d="M45.5354 19.7083C45.3647 19.3158 45.0874 18.9789 44.735 18.7359C44.3826 18.4929 43.9692 18.3534 43.5417 18.3333H33.0458L35.9562 7.47081C36.0489 7.1309 36.062 6.7742 35.9944 6.42841C35.9269 6.08263 35.7805 5.75708 35.5667 5.47706C35.3532 5.19974 35.079 4.97499 34.7652 4.82007C34.4514 4.66514 34.1062 4.58416 33.7562 4.58331H17.7146C17.1972 4.56559 16.6891 4.72356 16.2729 5.0315C15.8568 5.33944 15.5572 5.77919 15.4229 6.27915L9.28125 29.1958C9.18856 29.5357 9.17548 29.8924 9.24305 30.2382C9.31062 30.584 9.457 30.9095 9.67083 31.1896C9.88667 31.47 10.1645 31.6966 10.4826 31.8516C10.8007 32.0067 11.1503 32.086 11.5042 32.0833H20.3729L16.225 47.5291C16.0891 48.0272 16.1254 48.5566 16.3279 49.0315C16.5304 49.5063 16.8874 49.8989 17.3409 50.1456C17.7945 50.3922 18.318 50.4785 18.8267 50.3905C19.3354 50.3024 19.7995 50.0452 20.1437 49.6604L45.1229 22.1604C45.4204 21.8347 45.6175 21.4301 45.6906 20.9952C45.7638 20.5602 45.7099 20.1134 45.5354 19.7083ZM23.1 39.6L25.5521 30.4333C25.6448 30.0934 25.6578 29.7367 25.5903 29.3909C25.5227 29.0451 25.3763 28.7196 25.1625 28.4396C24.949 28.1622 24.6748 27.9375 24.361 27.7826C24.0472 27.6276 23.7021 27.5467 23.3521 27.5458H14.5521L19.4562 9.16665H30.7542L27.8437 20.0291C27.7503 20.3753 27.7394 20.7386 27.8119 21.0897C27.8844 21.4409 28.0383 21.7701 28.2612 22.051C28.4841 22.3318 28.7698 22.5565 29.0953 22.7068C29.4208 22.8572 29.7771 22.929 30.1354 22.9166H38.3167L23.1 39.6Z" fill="#808080"/>
</svg>
